<svg width="28" height="28" viewBox="0 0 28 28" fill="none" xmlns="http://www.w3.org/2000/svg">
<g clip-path="url(#clip0_74_162)">
<path fill-rule="evenodd" clip-rule="evenodd" d="M13.7349 1.99658e-07H13.8891C16.8411 -1.32156e-05 19.1598 -2.6747e-05 20.97 0.242266C22.825 0.490569 24.2969 1.00978 25.4533 2.16108C26.6097 3.31237 27.1312 4.77766 27.3807 6.62447C27.624 8.4267 27.624 10.735 27.624 13.6739V13.8274C27.624 16.7662 27.624 19.0746 27.3807 20.8768C27.1312 22.7235 26.6097 24.1889 25.4533 25.3402C24.2969 26.4915 22.825 27.0107 20.97 27.259C19.1598 27.5013 16.8411 27.5012 13.8891 27.5012H13.7349C10.783 27.5012 8.46432 27.5013 6.65405 27.259C4.79899 27.0107 3.32716 26.4915 2.17072 25.3402C1.0143 24.1889 0.492759 22.7235 0.243348 20.8768C-2.67058e-05 19.0746 -1.32746e-05 16.7662 2.00523e-07 13.8274V13.6739C-1.32746e-05 10.735 -2.67058e-05 8.4267 0.243348 6.62447C0.492759 4.77766 1.0143 3.31237 2.17072 2.16108C3.32716 1.00978 4.79899 0.490569 6.65405 0.242266C8.46432 -2.6747e-05 10.783 -1.32156e-05 13.7349 1.99658e-07ZM6.92339 2.23662C5.29245 2.45491 4.31827 2.86889 3.59998 3.58398C2.8817 4.29908 2.46587 5.26893 2.2466 6.8926C2.02341 8.54523 2.02127 10.7182 2.02127 13.7506C2.02127 16.783 2.02341 18.956 2.2466 20.6086C2.46587 22.2323 2.8817 23.2022 3.59998 23.9172C4.31827 24.6324 5.29245 25.0464 6.92339 25.2647C8.58338 25.4868 10.7661 25.489 13.812 25.489C16.8579 25.489 19.0406 25.4868 20.7006 25.2647C22.3315 25.0464 23.3058 24.6324 24.024 23.9172C24.7424 23.2022 25.1582 22.2323 25.3774 20.6086C25.6006 18.956 25.6028 16.783 25.6028 13.7506C25.6028 10.7182 25.6006 8.54523 25.3774 6.8926C25.1582 5.26893 24.7424 4.29908 24.024 3.58398C23.3058 2.86889 22.3315 2.45491 20.7006 2.23662C19.0406 2.01442 16.8579 2.01229 13.812 2.01229C10.7661 2.01229 8.58338 2.01442 6.92339 2.23662Z" fill="white"/>
<path fill-rule="evenodd" clip-rule="evenodd" d="M9.09563 17.44C8.53747 17.44 8.08499 17.8905 8.08499 18.4462C8.08499 19.0018 8.53747 19.4523 9.09563 19.4523C9.65378 19.4523 10.1063 19.0018 10.1063 18.4462C10.1063 17.8905 9.65378 17.44 9.09563 17.44ZM6.06372 18.4462C6.06372 16.7792 7.42115 15.4277 9.09563 15.4277C10.7701 15.4277 12.1275 16.7792 12.1275 18.4462C12.1275 20.1131 10.7701 21.4646 9.09563 21.4646C7.42115 21.4646 6.06372 20.1131 6.06372 18.4462Z" fill="white"/>
<path fill-rule="evenodd" clip-rule="evenodd" d="M18.5282 10.0612C17.9701 10.0612 17.5176 9.61072 17.5176 9.05505C17.5176 8.49938 17.9701 8.04891 18.5282 8.04891C19.0864 8.04891 19.5389 8.49938 19.5389 9.05505C19.5389 9.61072 19.0864 10.0612 18.5282 10.0612ZM15.4963 9.05505C15.4963 10.722 16.8538 12.0735 18.5282 12.0735C20.2027 12.0735 21.5601 10.722 21.5601 9.05505C21.5601 7.38802 20.2027 6.03662 18.5282 6.03662C16.8538 6.03662 15.4963 7.38802 15.4963 9.05505Z" fill="white"/>
<path fill-rule="evenodd" clip-rule="evenodd" d="M9.0956 6.03662C9.65375 6.03662 10.1062 6.48709 10.1062 7.04276V16.4334C10.1062 16.9891 9.65375 17.4396 9.0956 17.4396C8.53744 17.4396 8.08496 16.9891 8.08496 16.4334V7.04276C8.08496 6.48709 8.53744 6.03662 9.0956 6.03662Z" fill="white"/>
<path fill-rule="evenodd" clip-rule="evenodd" d="M18.5282 21.4645C19.0864 21.4645 19.5388 21.014 19.5388 20.4583V11.0677C19.5388 10.512 19.0864 10.0615 18.5282 10.0615C17.9701 10.0615 17.5176 10.512 17.5176 11.0677V20.4583C17.5176 21.014 17.9701 21.4645 18.5282 21.4645Z" fill="white"/>
</g>
<defs>
<clipPath id="clip0_74_162">
<rect width="28" height="28" fill="white"/>
</clipPath>
</defs>
</svg>
