<svg width="28" height="28" viewBox="0 0 28 28" fill="none" xmlns="http://www.w3.org/2000/svg">
<path d="M26.821 11.0653L24.1772 8.86033C23.7629 8.51471 23.2689 8.30208 22.7864 8.26139C22.2255 8.21633 21.7219 8.40664 21.403 8.78858L19.3454 11.2556L11.4945 20.6702L11.4997 20.6746C11.4004 20.7936 11.3392 20.9428 11.3427 21.1042L11.4464 26.2103C11.4503 26.405 11.5404 26.5878 11.6927 26.7095C11.8099 26.8035 11.9547 26.8534 12.1026 26.8534C12.1464 26.8534 12.1901 26.849 12.2334 26.8403L17.1452 25.8415C17.294 25.8113 17.42 25.7273 17.5136 25.6148L17.5184 25.6188L25.3322 16.2493L27.3897 13.7822C28.0079 13.0398 27.7577 11.8467 26.821 11.0653ZM12.7422 25.3965L12.6832 22.4994L15.5291 24.8295L12.7422 25.3965ZM16.926 24.2778L12.926 21.0023L19.933 12.6005L23.9033 15.9115L16.926 24.2778ZM26.3813 12.9409L24.7442 14.9035L20.7739 11.5925L22.411 9.62946C22.4504 9.58221 22.5536 9.55945 22.6761 9.56952C22.8892 9.58745 23.1298 9.69639 23.3359 9.86833L25.9797 12.0733C26.3914 12.4163 26.474 12.8302 26.3813 12.9409Z" fill="white"/>
<path d="M9.1748 21.6159C9.14155 21.5945 9.10699 21.5778 9.07199 21.563C9.06805 21.5612 9.06455 21.5586 9.06061 21.5573C8.98449 21.5266 8.90486 21.5126 8.82568 21.5118C8.8213 21.5118 8.81736 21.5109 8.81343 21.5109C8.73293 21.5113 8.6533 21.5275 8.57849 21.5564C8.57455 21.5577 8.57105 21.5586 8.56711 21.5599C8.4888 21.5923 8.41618 21.6395 8.35405 21.7012C8.35361 21.7016 8.35318 21.7016 8.35274 21.7021L8.35143 21.7034C8.35055 21.7043 8.34924 21.7056 8.34836 21.7065L6.68718 23.3672C6.32055 23.7316 5.72686 23.7316 5.3633 23.369L4.90393 22.9096C4.5408 22.5465 4.54168 21.9523 4.90393 21.5879L6.5673 19.9245C6.56774 19.9241 6.56818 19.9236 6.56905 19.9228L6.57124 19.9206C6.57168 19.9201 6.57211 19.9193 6.57255 19.9184C6.6338 19.8567 6.68105 19.7845 6.71343 19.7066C6.71518 19.7027 6.71561 19.6983 6.71736 19.6944C6.74624 19.6196 6.76243 19.5404 6.76287 19.4603C6.76287 19.4564 6.76199 19.4525 6.76199 19.4481C6.76112 19.3685 6.74668 19.2888 6.71605 19.2127C6.71474 19.2096 6.71255 19.207 6.71124 19.204C6.69636 19.1681 6.6793 19.1331 6.65743 19.0994C6.11099 18.2585 5.72774 17.3345 5.51818 16.3532C5.51599 16.3431 5.51161 16.3344 5.50899 16.3243C5.50068 16.2924 5.49149 16.26 5.4788 16.2303C5.47224 16.215 5.46262 16.2014 5.45518 16.1865C5.44293 16.1633 5.43155 16.1401 5.41711 16.1187C5.40749 16.1047 5.39568 16.0929 5.38518 16.0802C5.36899 16.0601 5.35324 16.0395 5.33487 16.0216C5.32524 16.012 5.31387 16.0045 5.3038 15.9958C5.28193 15.977 5.26005 15.9577 5.23599 15.942C5.22724 15.9363 5.21761 15.9323 5.20843 15.9271C5.1813 15.9109 5.15374 15.8951 5.12399 15.8833C5.11305 15.879 5.10168 15.8768 5.09074 15.8728C5.06186 15.8628 5.03343 15.8527 5.00324 15.847C4.98224 15.8431 4.9608 15.8426 4.93936 15.8405C4.9188 15.8383 4.89868 15.8343 4.87724 15.8343H2.5213C2.00418 15.8343 1.58374 15.4139 1.58374 14.8972V14.2541C1.58374 13.7374 2.00418 13.317 2.5213 13.317H4.87593H4.87811C4.87943 13.317 4.88074 13.3161 4.88205 13.3161C4.9503 13.3156 5.01505 13.3021 5.07674 13.2824C5.08724 13.2789 5.09774 13.2767 5.10824 13.2728C5.16818 13.25 5.2233 13.219 5.27361 13.1809C5.28324 13.1739 5.29155 13.1665 5.30074 13.1586C5.34974 13.1166 5.39393 13.0693 5.42893 13.0151C5.4333 13.0081 5.43637 13.0006 5.4403 12.9936C5.4753 12.9346 5.50286 12.8703 5.51818 12.8011C5.51861 12.7998 5.51905 12.799 5.51949 12.7976C5.72905 11.8168 6.1123 10.8928 6.65874 10.051C6.68061 10.0173 6.69768 9.98234 6.71255 9.94646C6.71386 9.9434 6.71561 9.94077 6.71693 9.93771C6.74755 9.86115 6.76199 9.78152 6.76287 9.7019C6.76287 9.69796 6.76374 9.69402 6.76374 9.69009C6.7633 9.60959 6.74711 9.5304 6.71824 9.45559C6.71693 9.45165 6.71605 9.44771 6.7143 9.44377C6.68193 9.36546 6.63468 9.29284 6.57299 9.23071C6.57255 9.23027 6.57255 9.22984 6.57211 9.2294L6.5708 9.22809C6.56949 9.22677 6.56818 9.22546 6.56686 9.22415L4.90655 7.56384C4.54255 7.19721 4.54168 6.60309 4.9048 6.23996L5.36418 5.78059C5.72774 5.41746 6.32143 5.41834 6.6863 5.78059L8.35361 7.4479C8.35624 7.45052 8.36018 7.4514 8.3628 7.45402C8.4188 7.50827 8.48268 7.54896 8.5518 7.57959C8.56755 7.58659 8.58286 7.59184 8.59861 7.59752C8.66905 7.62246 8.74168 7.63952 8.81649 7.63996H8.8178C8.89174 7.63996 8.96611 7.6229 9.03786 7.59709C9.0593 7.58965 9.07855 7.57871 9.09911 7.56909C9.12449 7.55684 9.15118 7.54984 9.17524 7.53409C10.0161 6.98765 10.9401 6.6044 11.921 6.39484C11.9289 6.39309 11.9359 6.38959 11.9437 6.3874C11.9783 6.37865 12.012 6.36902 12.0439 6.35546C12.0606 6.34846 12.075 6.3384 12.0903 6.33009C12.1122 6.31827 12.1345 6.30777 12.1551 6.29377C12.1726 6.28152 12.1879 6.26709 12.2041 6.25309C12.2198 6.23952 12.2369 6.22727 12.2513 6.2124C12.2662 6.19752 12.278 6.18046 12.2911 6.16384C12.3047 6.14721 12.3191 6.1319 12.3305 6.11396C12.3419 6.0969 12.3497 6.07852 12.3594 6.06015C12.3694 6.0409 12.3812 6.02252 12.3896 6.0024C12.3983 5.98052 12.404 5.95777 12.4106 5.93502C12.4158 5.91709 12.4228 5.89959 12.4267 5.88077C12.4329 5.84971 12.4346 5.81734 12.4364 5.7854C12.4368 5.77446 12.4399 5.76396 12.4399 5.75259V5.74909C12.4399 5.74821 12.4399 5.74777 12.4399 5.7469V3.39709C12.4399 2.8804 12.8603 2.45996 13.3774 2.45996H14.0201C14.5372 2.45996 14.9577 2.8804 14.9577 3.39709V5.74821V5.74865V5.75302C14.9577 5.76746 14.9612 5.78059 14.9621 5.79502C14.9638 5.8239 14.9651 5.85277 14.9708 5.88077C14.9752 5.90221 14.9826 5.9219 14.9892 5.94246C14.9953 5.96259 14.9997 5.98315 15.0076 6.0024C15.0163 6.02427 15.0286 6.04396 15.0399 6.06452C15.0491 6.08115 15.0566 6.09865 15.0671 6.1144C15.0793 6.13277 15.0937 6.14896 15.1077 6.16559C15.1204 6.18134 15.1322 6.19796 15.1467 6.21284C15.1611 6.22771 15.1777 6.23996 15.1939 6.25309C15.2106 6.26709 15.2259 6.28196 15.2438 6.29421C15.2631 6.30734 15.2845 6.3174 15.3051 6.32877C15.3217 6.33796 15.3374 6.34846 15.3549 6.3559C15.3842 6.36859 15.4157 6.37734 15.4472 6.38565C15.4577 6.38827 15.4669 6.39309 15.4774 6.39527C16.4579 6.60484 17.3823 6.98809 18.2241 7.53452C18.2477 7.54984 18.2744 7.55684 18.2989 7.56909C18.3199 7.57915 18.3396 7.59009 18.361 7.59752C18.4327 7.62334 18.5062 7.6404 18.5806 7.6404C18.6559 7.6404 18.7294 7.6229 18.7998 7.59796C18.8156 7.59227 18.8309 7.58702 18.8466 7.58002C18.9157 7.5494 18.9796 7.50871 19.0356 7.45446C19.0382 7.45184 19.0422 7.45096 19.0452 7.44834L20.7104 5.78277C21.077 5.41965 21.6711 5.4179 22.0342 5.78102L22.4936 6.2404C22.7439 6.49065 22.8169 6.8494 22.7224 7.16834C22.7732 7.16965 22.8231 7.1679 22.8742 7.17184C23.254 7.20377 23.6324 7.31009 23.9938 7.4724C24.1898 6.72384 24.0052 5.89565 23.4216 5.31246L22.9622 4.85309C22.0889 3.97984 20.664 3.97896 19.7837 4.85309L18.4752 6.16209C17.78 5.7644 17.0428 5.45815 16.2706 5.24771V3.39709C16.2706 2.15677 15.2613 1.14746 14.0206 1.14746H13.3779C12.1376 1.14746 11.1278 2.15677 11.1278 3.39709V5.24727C10.3556 5.45815 9.61799 5.76396 8.92324 6.16165L7.61249 4.8509C6.73443 3.97852 5.30862 3.9794 4.43624 4.85265L3.97687 5.31202C3.10362 6.18484 3.10318 7.60977 3.97687 8.49046L5.28543 9.79902C4.88774 10.4942 4.58193 11.2314 4.37105 12.0036H2.5213C1.28099 12.0036 0.27124 13.0129 0.27124 14.2532V14.8963C0.27124 16.1366 1.28055 17.146 2.5213 17.146H4.37105C4.58193 17.9186 4.88774 18.6558 5.28543 19.3505L3.97512 20.6613C3.10274 21.5393 3.10362 22.9643 3.97687 23.8375L4.43624 24.2969C4.87287 24.7335 5.44774 24.9518 6.02305 24.9518C6.59836 24.9518 7.17455 24.734 7.61424 24.2969L8.92324 22.9883C9.36468 23.2412 9.82536 23.4521 10.2992 23.6301L10.2703 22.2061C9.89318 22.0359 9.52568 21.8434 9.1748 21.6159Z" fill="white"/>
<path d="M8.92114 14.5748C8.92114 11.9402 11.0645 9.79688 13.6991 9.79688C15.2662 9.79688 16.6557 10.559 17.5276 11.728L18.3895 10.6946C17.2713 9.34537 15.5843 8.48438 13.6991 8.48438C10.3408 8.48438 7.60864 11.2166 7.60864 14.5748C7.60864 16.8529 8.86777 18.84 10.725 19.8848L11.5851 18.8536C10.0092 18.0713 8.92114 16.4499 8.92114 14.5748Z" fill="white"/>
</svg>
