<svg width="28" height="28" viewBox="0 0 28 28" fill="none" xmlns="http://www.w3.org/2000/svg">
<g clip-path="url(#clip0_66_314)">
<path d="M14 0C6.28037 0 0 6.28037 0 14C0 21.7196 6.28037 28 14 28C21.7196 28 28 21.7196 28 14C28 6.28037 21.7196 0 14 0ZM14 26.6875C7.0041 26.6875 1.3125 20.9959 1.3125 14C1.3125 7.0041 7.0041 1.3125 14 1.3125C20.9959 1.3125 26.6875 7.0041 26.6875 14C26.6875 20.9959 20.9959 26.6875 14 26.6875ZM20.5796 10.9518H12.548C11.6679 10.9518 10.9518 11.6679 10.9518 12.548V20.5796C10.9518 21.4598 11.6679 22.1758 12.548 22.1758H20.5796C21.4597 22.1758 22.1758 21.4598 22.1758 20.5796V12.548C22.1758 11.6679 21.4597 10.9518 20.5796 10.9518ZM20.8633 20.5796C20.8633 20.736 20.736 20.8633 20.5796 20.8633H12.548C12.3916 20.8633 12.2643 20.7361 12.2643 20.5796V12.548C12.2643 12.3916 12.3915 12.2643 12.548 12.2643H20.5796C20.736 12.2643 20.8633 12.3915 20.8633 12.548V20.5796ZM10.3092 16.3919C10.3092 16.7544 10.0155 17.0482 9.653 17.0482H7.42044C6.5403 17.0482 5.82422 16.3321 5.82422 15.452V7.42044C5.82422 6.5403 6.5403 5.82422 7.42044 5.82422H15.452C16.3321 5.82422 17.0482 6.5403 17.0482 7.42044V9.653C17.0482 10.0155 16.7544 10.3092 16.392 10.3092C16.0295 10.3092 15.7357 10.0155 15.7357 9.653V7.42044C15.7357 7.26403 15.6085 7.13672 15.452 7.13672H7.42044C7.26403 7.13672 7.13672 7.26398 7.13672 7.42044V15.452C7.13672 15.6084 7.26398 15.7357 7.42044 15.7357H9.653C10.0155 15.7357 10.3092 16.0295 10.3092 16.3919Z" fill="white"/>
</g>
<defs>
<clipPath id="clip0_66_314">
<rect width="28" height="28" fill="white"/>
</clipPath>
</defs>
</svg>
