<svg width="84" height="84" viewBox="0 0 84 84" fill="none" xmlns="http://www.w3.org/2000/svg">
<g clip-path="url(#clip0_136_3459)">
<path d="M23.1542 24.7055C23.9507 24.1505 24.1465 23.0548 23.5915 22.2583L22.5349 20.7419C21.9799 19.9454 20.8842 19.7497 20.0877 20.3046C19.2912 20.8596 19.0954 21.9553 19.6504 22.7518L20.707 24.2682C21.2621 25.0647 22.3577 25.2604 23.1542 24.7055Z" fill="white"/>
<path d="M32.4751 22.6617C32.8442 22.4045 33.1152 22.0064 33.2005 21.5287L33.5256 19.7093C33.6965 18.7537 33.0601 17.8405 32.1045 17.6697C31.1489 17.4989 30.2357 18.1352 30.0649 19.0908L29.7397 20.9102C29.5689 21.8658 30.2052 22.779 31.1609 22.9498C31.6388 23.0351 32.106 22.9189 32.4751 22.6617Z" fill="white"/>
<path d="M38.0645 27.37C38.6195 28.1665 39.7152 28.3623 40.5117 27.8073L42.028 26.7507C42.8245 26.1957 43.0203 25.1 42.4653 24.3035C41.9103 23.507 40.8147 23.3112 40.0182 23.8662L38.5018 24.9228C37.7053 25.4778 37.5095 26.5735 38.0645 27.37Z" fill="white"/>
<path d="M20.4897 39.616C19.9347 38.8195 18.8391 38.6237 18.0426 39.1787L16.5262 40.2353C15.7297 40.7903 15.5339 41.886 16.0889 42.6825C16.6439 43.479 17.7396 43.6748 18.5361 43.1198L20.0524 42.0632C20.8489 41.5082 21.0447 40.4125 20.4897 39.616Z" fill="white"/>
<path d="M16.6942 33.0303C17.172 33.1157 17.6393 32.9993 18.0083 32.7422C18.3773 32.4851 18.6484 32.0869 18.7337 31.6092C18.9045 30.6536 18.2682 29.7403 17.3125 29.5696L15.4931 29.2444C14.5376 29.0737 13.6244 29.71 13.4535 30.6656C13.2827 31.6212 13.919 32.5344 14.8747 32.7052L16.6942 33.0303Z" fill="white"/>
<path d="M52.8535 29.3252C52.1118 29.842 51.5405 30.5134 51.1525 31.266C49.4428 30.4044 47.3247 30.4824 45.6467 31.6516C44.905 32.1684 44.3337 32.8397 43.9458 33.5923C42.2363 32.7306 40.1188 32.8083 38.4414 33.9771C37.904 34.3515 37.4561 34.807 37.1025 35.3158L32.2113 28.2964C30.5161 25.8639 27.1575 25.2641 24.7245 26.9594C22.2909 28.6551 21.6907 32.0144 23.3862 34.4478L33.0345 48.2939L32.4212 48.7212C29.9881 50.4166 29.3882 53.7763 31.0842 56.2103L33.1765 59.2135C36.3297 63.7394 41.1807 66.9194 46.5739 68.0219L48.832 71.2626C49.387 72.0591 50.4827 72.2549 51.2792 71.6999L71.3418 57.7205C72.1383 57.1655 72.3341 56.0699 71.7791 55.2734L69.4509 51.932C69.6218 46.882 68.14 41.8509 65.2476 37.6998L60.345 30.6639C58.6487 28.2295 55.2881 27.6288 52.8535 29.3252ZM62.3632 39.7098C64.9235 43.3842 66.1839 47.8698 65.9124 52.3401C65.8883 52.7352 65.9985 53.1268 66.2248 53.4516L67.8899 55.8412L50.7117 67.8107L49.0467 65.4211C48.7764 65.0333 48.3613 64.7706 47.895 64.6924C43.1341 63.8943 38.8206 61.1648 36.0612 57.2039L33.9689 54.2008C33.3812 53.3571 33.5885 52.1929 34.4312 51.6058L36.4867 50.1735C36.8692 49.907 37.1302 49.4995 37.212 49.0405C37.294 48.5816 37.1904 48.1088 36.924 47.7264L26.2708 32.438C25.6834 31.595 25.8915 30.4313 26.7344 29.844C27.5771 29.2568 28.7401 29.4644 29.3271 30.3066L39.2715 44.5778C39.8265 45.3743 40.9222 45.5701 41.7187 45.0151C42.5151 44.4602 42.7109 43.3645 42.156 42.568L39.9878 39.4559C39.4004 38.6129 39.6085 37.4491 40.4514 36.8618C41.2946 36.2742 42.4589 36.4829 43.0469 37.3268L46.4783 42.2514C47.0333 43.0479 48.1289 43.2437 48.9254 42.6887C49.7219 42.1337 49.9177 41.038 49.3627 40.2415L47.1935 37.1283C46.6066 36.286 46.8143 35.1232 47.6567 34.5363C48.5006 33.9483 49.6658 34.1565 50.2539 35.0005L54.3171 40.8318C54.8721 41.6283 55.9677 41.8241 56.7642 41.2691C57.5607 40.7141 57.7565 39.6184 57.2015 38.8219L54.4002 34.8016C53.8133 33.9593 54.0211 32.7966 54.8633 32.2097C55.7073 31.6216 56.8725 31.8298 57.4606 32.6738L62.3632 39.7098Z" fill="white"/>
</g>
<defs>
<clipPath id="clip0_136_3459">
<rect width="60" height="60" fill="white" transform="translate(0 34.3018) rotate(-34.8683)"/>
</clipPath>
</defs>
</svg>
