<svg width="36" height="36" viewBox="0 0 36 36" fill="none" xmlns="http://www.w3.org/2000/svg">
<mask id="mask0_62_106" style="mask-type:luminance" maskUnits="userSpaceOnUse" x="6" y="6" width="24" height="24">
<path d="M6 6H30V30H6V6Z" fill="white"/>
</mask>
<g mask="url(#mask0_62_106)">
<path fill-rule="evenodd" clip-rule="evenodd" d="M24.406 10.155C24.2168 10.155 24.0295 10.1923 23.8547 10.2647C23.68 10.337 23.5212 10.4432 23.3874 10.5769C23.2537 10.7107 23.1475 10.8695 23.0752 11.0442C23.0028 11.219 22.9655 11.4063 22.9655 11.5955C22.9655 11.7847 23.0028 11.972 23.0752 12.1468C23.1475 12.3215 23.2537 12.4803 23.3874 12.6141C23.5212 12.7478 23.68 12.854 23.8547 12.9263C24.0295 12.9987 24.2168 13.036 24.406 13.036C24.788 13.036 25.1544 12.8842 25.4246 12.6141C25.6947 12.3439 25.8465 11.9775 25.8465 11.5955C25.8465 11.2135 25.6947 10.8471 25.4246 10.5769C25.1544 10.3068 24.788 10.155 24.406 10.155ZM18 22C16.9391 22 15.9217 21.5786 15.1716 20.8284C14.4214 20.0783 14 19.0609 14 18C14 16.9391 14.4214 15.9217 15.1716 15.1716C15.9217 14.4214 16.9391 14 18 14C19.0609 14 20.0783 14.4214 20.8284 15.1716C21.5786 15.9217 22 16.9391 22 18C22 19.0609 21.5786 20.0783 20.8284 20.8284C20.0783 21.5786 19.0609 22 18 22ZM18 11.838C16.3656 11.838 14.7981 12.4873 13.6425 13.643C12.4868 14.7986 11.8375 16.3661 11.8375 18.0005C11.8375 19.6349 12.4868 21.2024 13.6425 22.358C14.7981 23.5137 16.3656 24.163 18 24.163C19.6344 24.163 21.2019 23.5137 22.3575 22.358C23.5132 21.2024 24.1625 19.6349 24.1625 18.0005C24.1625 16.3661 23.5132 14.7986 22.3575 13.643C21.2019 12.4873 19.6344 11.838 18 11.838ZM18 6C14.741 6 14.333 6.014 13.052 6.072C8.695 6.272 6.273 8.69 6.073 13.052C6.013 14.332 6 14.74 6 18C6 21.259 6.013 21.668 6.072 22.948C6.272 27.306 8.69 29.728 13.052 29.928C14.333 29.986 14.742 30 18 30C21.26 30 21.668 29.986 22.948 29.928C27.302 29.728 29.73 27.31 29.928 22.948C29.986 21.668 30 21.258 30 18C30 14.74 29.986 14.333 29.927 13.053C29.732 8.699 27.31 6.273 22.949 6.073C21.67 6.013 21.26 6 18 6ZM18 8.163C21.204 8.163 21.584 8.175 22.85 8.233C26.101 8.381 27.621 9.923 27.768 13.152C27.828 14.417 27.838 14.797 27.838 18.001C27.838 21.206 27.826 21.585 27.768 22.85C27.62 26.075 26.105 27.62 22.849 27.769C21.584 27.827 21.206 27.839 18 27.839C14.796 27.839 14.416 27.827 13.151 27.769C9.891 27.619 8.381 26.069 8.232 22.849C8.174 21.584 8.162 21.205 8.162 17.999C8.162 14.796 8.175 14.417 8.232 13.151C8.382 9.924 9.896 8.38 13.152 8.231C14.417 8.175 14.796 8.163 18 8.163Z" fill="#CCCCCC"/>
</g>
</svg>
