<svg width="19" height="28" viewBox="0 0 19 28" fill="none" xmlns="http://www.w3.org/2000/svg">
<path d="M9.33333 0C4.2 0 0 4.2 0 9.33333C0 10.9667 0.466667 12.6 1.28333 14L8.4 27.4167C8.63333 27.7667 8.98333 28 9.45 28C9.91667 28 10.2667 27.7667 10.5 27.4167L17.85 13.5333L18.0833 13.0667C18.55 11.9 18.7833 10.7333 18.7833 9.45C18.6667 4.2 14.4667 0 9.33333 0ZM15.8667 11.9L9.33333 24.3833L3.26667 12.8333C2.68333 11.7833 2.33333 10.6167 2.33333 9.33333C2.33333 5.48333 5.48333 2.33333 9.33333 2.33333C13.1833 2.33333 16.3333 5.48333 16.3333 9.33333C16.3333 10.2667 16.1 11.2 15.8667 11.9Z" fill="white"/>
<path d="M9.33338 11.9002C11.0086 11.9002 12.3667 10.5421 12.3667 8.86683C12.3667 7.19157 11.0086 5.8335 9.33338 5.8335C7.65812 5.8335 6.30005 7.19157 6.30005 8.86683C6.30005 10.5421 7.65812 11.9002 9.33338 11.9002Z" fill="white"/>
</svg>
