<svg width="28" height="28" viewBox="0 0 28 28" fill="none" xmlns="http://www.w3.org/2000/svg">
<path fill-rule="evenodd" clip-rule="evenodd" d="M13.0234 0.976748C13.0234 0.43731 13.4608 0 14.0002 0C18.1359 0 21.4886 3.35267 21.4886 7.4884C21.4886 11.6241 18.1359 14.9768 14.0002 14.9768C13.4608 14.9768 13.0234 14.5395 13.0234 14.0001V0.976748ZM14.9769 2.03941V12.9374C17.5679 12.4761 19.5351 10.2119 19.5351 7.4884C19.5351 4.76485 17.5679 2.50074 14.9769 2.03941Z" fill="white"/>
<path fill-rule="evenodd" clip-rule="evenodd" d="M13.0234 14.0002C13.0234 13.4608 13.4608 13.0234 14.0002 13.0234H27.0235C27.5629 13.0234 28.0002 13.4608 28.0002 14.0002C28.0002 18.1359 24.6475 21.4886 20.5118 21.4886C16.3762 21.4886 13.0234 18.1359 13.0234 14.0002ZM15.0629 14.9769C15.5242 17.5679 17.7883 19.5351 20.5118 19.5351C23.2354 19.5351 25.4995 17.5679 25.9608 14.9769H15.0629Z" fill="white"/>
<path fill-rule="evenodd" clip-rule="evenodd" d="M0 14.0001C0 9.86443 3.35267 6.51172 7.4884 6.51172C11.6241 6.51172 14.9768 9.86443 14.9768 14.0001C14.9768 14.5395 14.5395 14.9769 14.0001 14.9769H0.976748C0.43731 14.9769 0 14.5395 0 14.0001ZM2.03941 13.0234H12.9374C12.4761 10.4324 10.2119 8.46521 7.4884 8.46521C4.76485 8.46521 2.50074 10.4324 2.03941 13.0234Z" fill="white"/>
<path fill-rule="evenodd" clip-rule="evenodd" d="M6.51172 20.5118C6.51172 16.3762 9.86443 13.0234 14.0001 13.0234C14.5395 13.0234 14.9769 13.4608 14.9769 14.0002V27.0235C14.9769 27.5629 14.5395 28.0002 14.0001 28.0002C9.86443 28.0002 6.51172 24.6475 6.51172 20.5118ZM13.0234 15.0629C10.4324 15.5242 8.46521 17.7883 8.46521 20.5118C8.46521 23.2354 10.4324 25.4995 13.0234 25.9608V15.0629Z" fill="white"/>
</svg>
