<svg width="29" height="28" viewBox="0 0 29 28" fill="none" xmlns="http://www.w3.org/2000/svg">
<path d="M11.1857 28C11.0433 28 10.9009 27.9825 10.7617 27.9465C10.2697 27.8185 9.94284 27.4822 9.94284 27.1064V16.0851H1.24281C0.760552 16.0851 0.320372 15.885 0.116464 15.5708C-0.0874427 15.2567 -0.0194737 14.8855 0.288005 14.6191L16.8595 0.321226C17.1929 0.0314992 17.7431 -0.0743848 18.2383 0.0536067C18.7303 0.181599 19.0572 0.517868 19.0572 0.893697V11.9149H27.7572C28.2394 11.9149 28.6796 12.1151 28.8835 12.4292C29.0874 12.7434 29.0195 13.1146 28.712 13.381L12.1405 27.6789C11.901 27.886 11.5482 28 11.1857 28ZM3.89684 14.2979H11.1857C11.8719 14.2979 12.4286 14.6982 12.4286 15.1915V24.6385L25.1032 13.7022H17.8143C17.1281 13.7022 16.5714 13.3019 16.5714 12.8086V3.36161L3.89684 14.2979Z" fill="white"/>
</svg>
