<svg width="32" height="32" viewBox="0 0 32 32" fill="none" xmlns="http://www.w3.org/2000/svg">
<g clip-path="url(#clip0_67_332)">
<mask id="mask0_67_332" style="mask-type:luminance" maskUnits="userSpaceOnUse" x="0" y="0" width="32" height="32">
<path d="M0 0H32V32H0V0Z" fill="white"/>
</mask>
<g mask="url(#mask0_67_332)">
<path d="M32 19.9998C32 16.4798 29.2667 13.6265 25.8 13.3865C24.8933 8.78648 20.8533 5.33315 16 5.33315C14.2267 5.33315 12.5733 5.81315 11.1333 6.62648L13.12 8.61315C14.0133 8.22648 14.9733 7.99982 16 7.99982C20.0533 7.99982 23.3333 11.2798 23.3333 15.3332V15.9998H25.3333C27.5467 15.9998 29.3333 17.7865 29.3333 19.9998C29.3333 21.3198 28.6933 22.4665 27.72 23.1998L29.6 25.0798C31.0533 23.8532 32 22.0532 32 19.9998ZM5.88 5.14648L4 7.02648L7.69333 10.7198H7.13333C3.12 11.1465 0 14.5465 0 18.6665C0 23.0798 3.58667 26.6665 8 26.6665H23.64L26.3067 29.3332L28.1867 27.4532L5.88 5.14648ZM8 23.9998C5.05333 23.9998 2.66667 21.6132 2.66667 18.6665C2.66667 15.7198 5.05333 13.3332 8 13.3332H10.3067L20.9733 23.9998H8Z" fill="white"/>
</g>
</g>
<defs>
<clipPath id="clip0_67_332">
<rect width="32" height="32" fill="white"/>
</clipPath>
</defs>
</svg>
