<svg width="40" height="40" viewBox="0 0 40 40" fill="none" xmlns="http://www.w3.org/2000/svg">
<path d="M20 34.1597C12.7524 31.2606 8 24.2412 8 16.4353V9.43967C8 9.43967 15.2 5.83967 20 5.83967C24.8 5.83967 32 9.43967 32 9.43967V16.4353C32 24.2412 27.2476 31.2606 20 34.1597Z" stroke="white" stroke-width="2" stroke-miterlimit="10" stroke-linecap="round" stroke-linejoin="round"/>
<path d="M20.0003 29.0854C15.5706 26.5683 12.8003 21.8854 12.8003 16.6753V12.3112C15.2097 11.3386 18.137 10.3999 20.0003 10.3999C21.8636 10.3999 24.7909 11.3386 27.2003 12.3112V16.6753C27.2003 21.8854 24.43 26.5683 20.0003 29.0854Z" stroke="white" stroke-width="2" stroke-miterlimit="10" stroke-linecap="round" stroke-linejoin="round"/>
<path d="M17.6001 19.9997L18.8001 21.1997L22.4001 17.5997" stroke="white" stroke-width="2" stroke-miterlimit="10" stroke-linecap="round" stroke-linejoin="round"/>
</svg>
