<svg width="32" height="32" viewBox="0 0 32 32" fill="none" xmlns="http://www.w3.org/2000/svg">
<path d="M19.5357 21.3862C19.5357 21.7402 19.2461 22.0298 18.8922 22.0298H13.1079C12.754 22.0298 12.4644 21.7402 12.4644 21.3862V17.4883C12.4644 17.1343 12.754 16.8447 13.1079 16.8447H18.8922C19.2461 16.8447 19.5357 17.1343 19.5357 17.4883V21.3862Z" stroke="white" stroke-width="2" stroke-miterlimit="10" stroke-linecap="round"/>
<path d="M18.3256 16.5843V15.2606C18.3256 13.9758 17.2843 12.9346 15.9997 12.9346C14.7154 12.9346 13.6741 13.9759 13.6741 15.2606V16.5843" stroke="white" stroke-width="2" stroke-miterlimit="10" stroke-linecap="round"/>
<path d="M24.6894 7.53554H16.7041C16.4917 7.53554 16.203 7.40528 16.0624 7.24611L13.9555 4.86072C13.8149 4.70155 13.5261 4.57129 13.3137 4.57129H8.99243" stroke="white" stroke-width="2" stroke-miterlimit="10" stroke-linecap="round"/>
<path d="M8.99193 4.57129H4.85965C3.44381 4.57129 2.2854 5.7297 2.2854 7.14554V17.0024" stroke="white" stroke-width="2" stroke-miterlimit="10" stroke-linecap="round"/>
<path d="M2.28564 17.0025V24.8544C2.28564 26.2702 3.44406 27.4286 4.8599 27.4286H27.1401C28.556 27.4286 29.7144 26.2702 29.7145 24.8544L29.7145 21.0555C29.7146 19.6397 29.7146 17.3229 29.7146 15.907V10.1099C29.7146 8.69406 28.5839 7.53564 27.2019 7.53564C25.82 7.53564 24.6892 7.53564 24.6892 7.53564" stroke="white" stroke-width="2" stroke-miterlimit="10" stroke-linecap="round"/>
</svg>
