<svg width="115" height="35" viewBox="0 0 115 35" fill="none" xmlns="http://www.w3.org/2000/svg">
<mask id="mask0_110_917" style="mask-type:luminance" maskUnits="userSpaceOnUse" x="0" y="0" width="115" height="35">
<path d="M114.087 0H0V34.4H114.087V0Z" fill="white"/>
</mask>
<g mask="url(#mask0_110_917)">
<path d="M70.7629 26.8742C64.141 31.7502 54.5427 34.3517 46.279 34.3517C34.6919 34.3517 24.2605 30.0704 16.3689 22.9496C15.7488 22.3897 16.3043 21.6266 17.0484 22.0627C25.5651 27.013 36.0956 29.9911 46.9734 29.9911C54.3096 29.9911 62.3799 28.4748 69.8007 25.3282C70.9217 24.8524 71.8591 26.0616 70.7629 26.8742Z" fill="white"/>
<path d="M73.5145 23.7276C72.6712 22.6473 67.9194 23.2172 65.7869 23.4699C65.1367 23.5492 65.0377 22.9843 65.6225 22.578C69.4074 19.9169 75.6175 20.685 76.342 21.5769C77.0664 22.4739 76.1537 28.6928 72.597 31.6609C72.0513 32.1169 71.5303 31.8741 71.7737 31.2695C72.5723 29.2775 74.3626 24.8128 73.5145 23.7276Z" fill="white"/>
<path d="M65.9362 3.7925V1.20585C65.9362 0.81439 66.2337 0.551758 66.5912 0.551758H78.1834C78.5552 0.551758 78.8528 0.819342 78.8528 1.20585V3.42086C78.848 3.7925 78.5352 4.27812 77.98 5.04619L71.9732 13.6139C74.2047 13.5593 76.5614 13.8913 78.5847 15.0311C79.0411 15.2888 79.1655 15.6653 79.1998 16.037V18.7971C79.1998 19.1736 78.7834 19.6147 78.347 19.3868C74.7807 17.5186 70.0433 17.3154 66.0997 19.4066C65.6984 19.6246 65.2764 19.1885 65.2764 18.812V16.1906C65.2764 15.7694 65.2819 15.0508 65.7032 14.4116L72.6625 4.44165H66.6063C66.2337 4.44165 65.9362 4.17902 65.9362 3.7925Z" fill="white"/>
<path d="M23.6499 19.9318H20.1231C19.7858 19.907 19.518 19.6543 19.4932 19.3322V1.25043C19.4932 0.888695 19.7958 0.601287 20.1727 0.601287H23.4613C23.8036 0.616143 24.0764 0.878783 24.1012 1.20583V3.56949H24.1657C25.0238 1.28511 26.6359 0.219727 28.8084 0.219727C31.0158 0.219727 32.3947 1.28511 33.3868 3.56949C34.2399 1.28511 36.1794 0.219727 38.2577 0.219727C39.7358 0.219727 41.3529 0.829222 42.3399 2.19688C43.456 3.71815 43.2278 5.92821 43.2278 7.86573L43.2229 19.2777C43.2229 19.6394 42.9203 19.9318 42.5433 19.9318H39.0216C38.6693 19.907 38.3867 19.6246 38.3867 19.2777V9.69421C38.3867 8.93109 38.4561 7.02829 38.2874 6.30477C38.0246 5.09077 37.2359 4.74885 36.2141 4.74885C35.3609 4.74885 34.4681 5.3187 34.106 6.23045C33.7439 7.14229 33.7786 8.66845 33.7786 9.69421V19.2777C33.7786 19.6394 33.4761 19.9318 33.0991 19.9318H29.5773C29.2202 19.907 28.9424 19.6246 28.9424 19.2777L28.9374 9.69421C28.9374 7.67741 29.2697 4.70921 26.7648 4.70921C24.2302 4.70921 24.3294 7.60309 24.3294 9.69421V19.2777C24.3294 19.6394 24.0268 19.9318 23.6499 19.9318Z" fill="white"/>
<path d="M88.8322 0.219727C94.065 0.219727 96.8973 4.70921 96.8973 10.4176C96.8973 15.9329 93.7674 20.3084 88.8322 20.3084C83.6934 20.3084 80.8955 15.8189 80.8955 10.2244C80.8955 4.59523 83.7285 0.219727 88.8322 0.219727ZM88.8617 3.91141C86.2632 3.91141 86.0988 7.44949 86.0988 9.65461C86.0988 11.8646 86.0645 16.582 88.8322 16.582C91.5655 16.582 91.6939 12.7764 91.6939 10.4573C91.6939 8.93109 91.6301 7.10757 91.1682 5.66061C90.7716 4.40198 89.9834 3.91141 88.8617 3.91141Z" fill="white"/>
<path d="M103.683 19.9318H100.171C99.8185 19.907 99.536 19.6246 99.536 19.2777L99.5312 1.19096C99.5608 0.858958 99.8536 0.601287 100.211 0.601287H103.48C103.787 0.616143 104.04 0.82427 104.109 1.10673V3.87177H104.174C105.161 1.39909 106.545 0.219727 108.981 0.219727C110.563 0.219727 112.106 0.789583 113.097 2.35049C114.02 3.79743 114.02 6.23045 114.02 7.97965V19.362C113.98 19.6791 113.688 19.9318 113.341 19.9318H109.804C109.482 19.907 109.214 19.6692 109.178 19.362V9.54061C109.178 7.56341 109.407 4.66956 106.972 4.66956C106.113 4.66956 105.325 5.24437 104.932 6.11653C104.437 7.22157 104.372 8.32157 104.372 9.54061V19.2777C104.368 19.6394 104.06 19.9318 103.683 19.9318Z" fill="white"/>
<path d="M56.6954 11.2949V10.5317C54.1458 10.5317 51.4524 11.0769 51.4524 14.0797C51.4524 15.601 52.2411 16.6317 53.5953 16.6317C54.5873 16.6317 55.4751 16.0222 56.0357 15.0311C56.7301 13.8121 56.6954 12.6675 56.6954 11.2949ZM60.2518 19.8823C60.0187 20.0905 59.6814 20.1053 59.4185 19.9665C58.2479 18.9953 58.0396 18.5444 57.3948 17.6178C55.4603 19.59 54.0913 20.1797 51.5814 20.1797C48.6151 20.1797 46.3037 18.3512 46.3037 14.6892C46.3037 11.8301 47.8563 9.88262 50.0636 8.93118C51.9782 8.08878 54.6517 7.94014 56.6954 7.70726V7.25134C56.6954 6.4139 56.7599 5.42285 56.2688 4.69939C55.8373 4.05024 55.0139 3.78266 54.2897 3.78266C52.9454 3.78266 51.745 4.47144 51.4524 5.89854C51.3929 6.21574 51.1598 6.5279 50.8423 6.54278L47.4198 6.17606C47.1321 6.11166 46.8146 5.8787 46.894 5.43772C47.6827 1.29511 51.4276 0.0463867 54.7807 0.0463867C56.497 0.0463867 58.739 0.502267 60.0931 1.80055C61.8094 3.4011 61.6457 5.53683 61.6457 7.86086V13.3513C61.6457 15.0014 62.3302 15.7249 62.975 16.6168C63.2032 16.934 63.2528 17.3155 62.9651 17.5533C62.2459 18.1529 60.9661 19.2679 60.2618 19.8922L60.2518 19.8823Z" fill="white"/>
<path d="M10.461 11.2949V10.5317C7.91145 10.5317 5.21803 11.0769 5.21803 14.0797C5.21803 15.601 6.00675 16.6317 7.36088 16.6317C8.35288 16.6317 9.24077 16.0222 9.80131 15.0311C10.4957 13.8121 10.461 12.6675 10.461 11.2949ZM14.0175 19.8823C13.7844 20.0905 13.4471 20.1053 13.1842 19.9665C12.0136 18.9953 11.8053 18.5444 11.1604 17.6178C9.22593 19.59 7.85688 20.1797 5.34704 20.1797C2.38084 20.1797 0.0693359 18.3512 0.0693359 14.6892C0.0693359 11.8301 1.62188 9.88262 3.8292 8.93118C5.74387 8.08878 8.41742 7.94014 10.461 7.70726V7.25134C10.461 6.4139 10.5255 5.42285 10.0344 4.69939C9.6029 4.05024 8.77947 3.78266 8.0553 3.78266C6.71106 3.78266 5.51075 4.47144 5.21803 5.89854C5.15851 6.21574 4.92539 6.5279 4.60794 6.54278L1.1854 6.17606C0.897707 6.11166 0.580257 5.8787 0.659639 5.43772C1.44828 1.29511 5.1933 0.0463867 8.54635 0.0463867C10.2626 0.0463867 12.5046 0.502267 13.8588 1.80055C15.575 3.4011 15.4113 5.53683 15.4113 7.86086V13.3513C15.4113 15.0014 16.0958 15.7249 16.7406 16.6168C16.9688 16.934 17.0184 17.3155 16.7307 17.5533C16.0115 18.1529 14.7318 19.2679 14.0274 19.8922L14.0175 19.8823Z" fill="white"/>
</g>
</svg>
