<svg width="178" height="39" viewBox="0 0 178 39" fill="none" xmlns="http://www.w3.org/2000/svg">
<path fill-rule="evenodd" clip-rule="evenodd" d="M76.1327 18.7761C77.2083 18.3691 78.131 17.6504 78.7775 16.7163C79.424 15.7822 79.7635 14.6772 79.7503 13.5493C79.7503 8.84518 76.3382 6.51318 71.6518 6.51318H59.3604V32.0924H72.7206C76.8315 32.0924 80.8605 29.278 80.8605 24.9759C80.8605 19.8617 76.1327 18.8243 76.1327 18.7761ZM65.7734 11.8204H70.5419C70.8472 11.8019 71.1533 11.8425 71.4426 11.9398C71.7319 12.0371 71.9988 12.1893 72.2279 12.3876C72.457 12.5859 72.6438 12.8264 72.7777 13.0955C72.9117 13.3645 72.9901 13.6567 73.0085 13.9554C73.0085 14.0465 73.0085 14.139 73.0085 14.2328C72.9955 14.8616 72.729 15.46 72.267 15.8975C71.805 16.3351 71.1849 16.5763 70.5419 16.5688H65.7322L65.7734 11.8204ZM70.5831 26.7369H65.8145V21.7112H70.4596C72.8028 21.7112 73.9128 22.7163 73.9128 24.2039C73.9128 26.0615 72.5152 26.7369 70.5831 26.7369Z" fill="white"/>
<path fill-rule="evenodd" clip-rule="evenodd" d="M95.002 5.87012C87.438 5.87012 82.998 11.7804 82.998 19.2588C82.998 26.7371 87.438 32.6474 95.002 32.6474C102.566 32.6474 107.005 26.7773 107.005 19.2588C107.005 11.7402 102.607 5.87012 95.002 5.87012ZM95.002 26.5361C91.302 26.5361 89.452 23.2794 89.452 19.2588C89.452 15.2381 91.302 12.0217 95.002 12.0217C98.701 12.0217 100.593 15.2784 100.593 19.2588C100.593 23.3196 98.701 26.5361 95.002 26.5361Z" fill="white"/>
<path fill-rule="evenodd" clip-rule="evenodd" d="M120.941 16.5647L120.037 16.3637C117.817 15.9214 116.05 15.3585 116.05 13.7905C116.05 12.1018 117.735 11.4183 119.215 11.4183C120.225 11.433 121.22 11.6513 122.14 12.0594C123.059 12.4676 123.883 13.0569 124.559 13.7905L128.629 9.85029C126.779 7.79979 123.778 5.82959 119.092 5.82959C113.583 5.82959 109.39 8.84509 109.39 13.8709C109.39 18.4544 112.761 20.7059 116.872 21.5503L117.776 21.7513C121.188 22.4348 122.463 22.9575 122.463 24.5657C122.463 26.0936 121.065 27.0987 118.927 27.0987C116.378 27.0987 114.076 26.0131 112.309 23.8018L108.157 27.8224C110.459 30.5162 113.378 32.607 119.009 32.607C123.901 32.607 129.122 29.8729 129.122 24.2843C129.204 18.4544 124.682 17.3286 120.941 16.5647Z" fill="white"/>
<path fill-rule="evenodd" clip-rule="evenodd" d="M143.757 26.536C140.879 26.536 137.878 24.204 137.878 19.0978C137.878 14.5545 140.673 12.0215 143.592 12.0215C145.894 12.0215 147.251 13.0669 148.32 14.8762L153.582 11.4586C150.951 7.55866 147.826 5.91016 143.51 5.91016C135.617 5.91016 131.342 11.9009 131.342 19.138C131.342 26.737 136.069 32.6875 143.428 32.6875C148.607 32.6875 151.074 30.9184 153.746 27.1391L148.443 23.6492C147.374 25.3298 146.223 26.536 143.757 26.536Z" fill="white"/>
<path fill-rule="evenodd" clip-rule="evenodd" d="M171.135 6.51318V15.9215H163.201V6.51318H156.336V32.0844H163.201V21.9926H171.135V32.0844H178V6.51318H171.135Z" fill="white"/>
<path d="M19.8143 0C15.8954 0 12.0645 1.13658 8.80611 3.26601C5.54761 5.39549 3.00801 8.42209 1.50831 11.9632C0.00860596 15.5043 -0.383796 19.4009 0.380704 23.1601C1.1453 26.9193 3.0324 30.3724 5.8035 33.0827C8.5746 35.7929 12.1051 37.6386 15.9487 38.3864C19.7923 39.1341 23.7763 38.7504 27.3969 37.2836C31.0175 35.8168 34.1121 33.3329 36.2893 30.146C38.4666 26.9591 39.6286 23.2122 39.6286 19.3794C39.6286 14.2396 37.5411 9.31039 33.8252 5.67609C30.1093 2.04175 25.0694 0 19.8143 0ZM19.8143 36.9495C16.2613 36.9495 12.7881 35.919 9.8338 33.9884C6.8796 32.0577 4.57701 29.3137 3.21731 26.1032C1.85771 22.8926 1.50191 19.3599 2.19511 15.9516C2.88821 12.5433 4.59921 9.41269 7.11151 6.95549C9.6239 4.49822 12.8249 2.82483 16.3096 2.14688C19.7944 1.46893 23.4064 1.81688 26.689 3.14672C29.9716 4.47656 32.7773 6.72859 34.7512 9.61799C36.7252 12.5073 37.7788 15.9043 37.7788 19.3794C37.7777 24.0389 35.8846 28.5073 32.5159 31.8021C29.1472 35.0969 24.5785 36.9484 19.8143 36.9495Z" fill="white"/>
<path d="M27.9946 7.27734H26.638V13.9113H13.0311V7.27734H11.6334C9.58626 8.59824 7.90616 10.3952 6.74366 12.5073C5.58116 14.6194 4.97266 16.9806 4.97266 19.3793C4.97266 21.778 5.58116 24.1392 6.74366 26.2513C7.90616 28.3634 9.58626 30.1605 11.6334 31.4814H13.0311V24.8554H26.638V31.4894H27.9946C30.0427 30.1691 31.7236 28.3723 32.8867 26.2601C34.0498 24.1479 34.6587 21.7864 34.6587 19.3873C34.6587 16.9883 34.0498 14.6267 32.8867 12.5145C31.7236 10.4023 30.0427 8.60564 27.9946 7.28534V7.27734ZM11.1401 28.876C9.86515 27.768 8.82586 26.4253 8.08156 24.9245C7.33716 23.4237 6.90246 21.7942 6.80206 20.129C6.70166 18.4639 6.93756 16.7957 7.49636 15.2197C8.05526 13.6437 8.92596 12.1909 10.059 10.944C10.3985 10.573 10.7595 10.2213 11.1401 9.89074V28.876ZM26.638 23.0059H13.0311V15.7205H26.638V23.0059ZM28.4879 28.8358V24.8152V13.9113V9.89074C29.7597 11.0076 30.794 12.3587 31.5318 13.8667C32.2695 15.3748 32.6962 17.0102 32.7874 18.6796C32.8786 20.349 32.6327 22.0196 32.0635 23.596C31.4944 25.1724 30.6132 26.6236 29.4704 27.8668C29.1596 28.203 28.8317 28.5237 28.4879 28.8277V28.8358Z" fill="white"/>
</svg>
