<svg width="58" height="60" viewBox="0 0 58 60" fill="none" xmlns="http://www.w3.org/2000/svg">
<path d="M53.793 49.6552V5.17241C53.7914 3.8011 53.246 2.48642 52.2763 1.51675C51.3066 0.547083 49.9919 0.00161529 48.6206 0H7.24131C5.87 0.00161529 4.55531 0.547083 3.58564 1.51675C2.61598 2.48642 2.07051 3.8011 2.0689 5.17241V10.3448H10.3448V13.5007C8.09961 13.7041 5.96558 14.5703 4.21379 15.9892C2.462 17.4081 1.17153 19.3157 0.506309 21.4696C-0.158908 23.6236 -0.168839 25.9267 0.477778 28.0863C1.1244 30.2459 2.39837 32.1646 4.13786 33.5986V47.4973L10.3448 41.2905V54.8276C10.3464 56.1989 10.8918 57.5136 11.8615 58.4833C12.8312 59.4529 14.1459 59.9984 15.5172 60H52.7586C54.1299 59.9984 55.4446 59.4529 56.4142 58.4833C57.3839 57.5136 57.9294 56.1989 57.931 54.8276V49.6552H53.793ZM4.13786 8.27586V5.17241C4.13786 4.34933 4.46483 3.55995 5.04684 2.97794C5.62885 2.39594 6.41822 2.06897 7.24131 2.06897C8.0644 2.06897 8.85377 2.39594 9.43578 2.97794C10.0178 3.55995 10.3448 4.34933 10.3448 5.17241V8.27586H4.13786ZM2.0689 24.8276C2.0689 22.9862 2.61494 21.1861 3.63797 19.655C4.66101 18.124 6.11508 16.9306 7.81633 16.2259C9.51757 15.5213 11.3896 15.3369 13.1956 15.6961C15.0016 16.0554 16.6606 16.9421 17.9626 18.2442C19.2647 19.5463 20.1514 21.2052 20.5107 23.0112C20.8699 24.8173 20.6856 26.6893 19.9809 28.3905C19.2762 30.0917 18.0829 31.5458 16.5518 32.5689C15.0207 33.5919 13.2207 34.1379 11.3792 34.1379C8.91082 34.1352 6.54429 33.1534 4.79886 31.408C3.05342 29.6625 2.07163 27.296 2.0689 24.8276ZM6.20683 34.9507C7.80603 35.7762 9.57957 36.2069 11.3792 36.2069C13.1789 36.2069 14.9525 35.7762 16.5517 34.9507V42.5025L11.3792 37.33L6.20683 42.5025V34.9507ZM18.6206 54.8276C18.6206 55.6507 18.2937 56.44 17.7116 57.0221C17.1296 57.6041 16.3403 57.931 15.5172 57.931C14.6941 57.931 13.9047 57.6041 13.3227 57.0221C12.7407 56.44 12.4137 55.6507 12.4137 54.8276V41.2905L18.6206 47.4973V33.5986C20.3601 32.1646 21.6341 30.2459 22.2807 28.0863C22.9273 25.9267 22.9174 23.6236 22.2522 21.4696C21.587 19.3157 20.2965 17.4081 18.5447 15.9892C16.7929 14.5703 14.6589 13.7041 12.4137 13.5007V5.17241C12.4151 4.0527 12.0512 2.96308 11.3772 2.06897H48.6206C49.4434 2.06987 50.2323 2.39713 50.8141 2.97894C51.3959 3.56076 51.7232 4.34961 51.7241 5.17241V49.6552H18.6206V54.8276ZM55.862 54.8276C55.8611 55.6504 55.5338 56.4393 54.952 57.0211C54.3702 57.6029 53.5814 57.9301 52.7586 57.931H19.653C20.3271 57.0369 20.691 55.9473 20.6896 54.8276V51.7241H55.862V54.8276Z" fill="white"/>
<path d="M17.5859 6.20703H32.0687V8.276H17.5859V6.20703Z" fill="white"/>
<path d="M26.897 15.5171H34.1384V17.5861H26.897V15.5171Z" fill="white"/>
<path d="M26.897 21.7241H41.3797V23.7931H26.897V21.7241Z" fill="white"/>
<path d="M26.897 27.9312H41.3797V30.0001H26.897V27.9312Z" fill="white"/>
<path d="M26.897 34.1382H41.3797V36.2071H26.897V34.1382Z" fill="white"/>
<path d="M33.104 43.4482H47.5868V45.5172H33.104V43.4482Z" fill="white"/>
<path d="M44.4831 5.17285C43.6647 5.17285 42.8647 5.41554 42.1842 5.87022C41.5038 6.3249 40.9734 6.97116 40.6602 7.72726C40.347 8.48337 40.2651 9.31537 40.4247 10.1181C40.5844 10.9207 40.9785 11.658 41.5572 12.2367C42.1359 12.8154 42.8732 13.2095 43.6759 13.3692C44.4786 13.5289 45.3106 13.4469 46.0667 13.1337C46.8228 12.8205 47.469 12.2902 47.9237 11.6097C48.3784 10.9292 48.6211 10.1292 48.6211 9.31078C48.62 8.21366 48.1837 7.16178 47.4079 6.386C46.6321 5.61022 45.5803 5.17392 44.4831 5.17285ZM44.4831 11.3797C44.0739 11.3797 43.6739 11.2584 43.3337 11.0311C42.9935 10.8037 42.7283 10.4806 42.5717 10.1025C42.4151 9.72449 42.3741 9.30849 42.4539 8.90715C42.5338 8.50581 42.7308 8.13715 43.0202 7.8478C43.3095 7.55845 43.6782 7.3614 44.0795 7.28157C44.4809 7.20174 44.8969 7.24271 45.2749 7.39931C45.653 7.5559 45.9761 7.82109 46.2034 8.16133C46.4308 8.50157 46.5521 8.90158 46.5521 9.31078C46.5514 9.85928 46.3332 10.3851 45.9453 10.7729C45.5575 11.1608 45.0316 11.379 44.4831 11.3797Z" fill="white"/>
<path d="M11.3797 31.0349C12.6074 31.0349 13.8074 30.6709 14.8281 29.9888C15.8488 29.3068 16.6444 28.3374 17.1142 27.2033C17.584 26.0691 17.7069 24.8211 17.4674 23.6171C17.2279 22.4131 16.6367 21.3071 15.7687 20.4391C14.9006 19.571 13.7947 18.9799 12.5907 18.7404C11.3866 18.5009 10.1386 18.6238 9.00447 19.0936C7.87031 19.5634 6.90093 20.3589 6.2189 21.3796C5.53688 22.4003 5.17285 23.6004 5.17285 24.828C5.17466 26.4736 5.82918 28.0513 6.99281 29.2149C8.15643 30.3786 9.73413 31.0331 11.3797 31.0349ZM11.3797 20.6901C12.1982 20.6901 12.9982 20.9327 13.6787 21.3874C14.3591 21.8421 14.8895 22.4884 15.2027 23.2445C15.5159 24.0006 15.5978 24.8326 15.4382 25.6353C15.2785 26.4379 14.8844 27.1753 14.3057 27.754C13.727 28.3327 12.9897 28.7268 12.187 28.8864C11.3843 29.0461 10.5523 28.9641 9.79623 28.6509C9.04012 28.3378 8.39387 27.8074 7.93918 27.1269C7.4845 26.4464 7.24182 25.6464 7.24182 24.828C7.24289 23.7309 7.67919 22.679 8.45497 21.9032C9.23075 21.1274 10.2826 20.6911 11.3797 20.6901Z" fill="white"/>
</svg>
