<svg width="62" height="62" viewBox="0 0 62 62" fill="none" xmlns="http://www.w3.org/2000/svg">
<g filter="url(#filter0_d_83_303)">
<path d="M54.7266 0H5.27344C2.36566 0 0 2.36566 0 5.27344V54.7266C0 57.6343 2.36566 60 5.27344 60H54.7266C57.6343 60 60 57.6343 60 54.7266V5.27344C60 2.36566 57.6343 0 54.7266 0ZM56.4844 54.7266C56.4844 55.6958 55.6958 56.4844 54.7266 56.4844H5.27344C4.30418 56.4844 3.51562 55.6958 3.51562 54.7266V17.5781H56.4844V54.7266ZM56.4844 14.0625H3.51562V5.27344C3.51562 4.30418 4.30418 3.51562 5.27344 3.51562H54.7266C55.6958 3.51562 56.4844 4.30418 56.4844 5.27344V14.0625Z" fill="white"/>
<path d="M14.9078 37.0313L20.6961 31.2431C21.3826 30.5566 21.3826 29.4435 20.6961 28.7571C20.0097 28.0706 18.8967 28.0706 18.2102 28.7571L11.1789 35.7883C10.4924 36.4748 10.4924 37.5877 11.1789 38.2742L18.2102 45.3054C18.8965 45.9918 20.0096 45.9919 20.6961 45.3054C21.3826 44.619 21.3826 43.506 20.6961 42.8196L14.9078 37.0313Z" fill="white"/>
<path d="M48.8212 35.7883L41.7898 28.7571C41.1035 28.0706 39.9904 28.0706 39.3039 28.7571C38.6174 29.4435 38.6174 30.5565 39.3039 31.2429L45.0923 37.0313L39.304 42.8196C38.6176 43.506 38.6176 44.619 39.304 45.3054C39.9904 45.9918 41.1035 45.9919 41.7899 45.3054L48.8212 38.2742C49.5077 37.5877 49.5077 36.4748 48.8212 35.7883Z" fill="white"/>
<path d="M34.0715 24.8168C33.1502 24.5097 32.155 25.0076 31.848 25.9286L24.8168 47.0223C24.5097 47.9433 25.0075 48.9388 25.9285 49.2458C26.8497 49.5529 27.8451 49.0549 28.152 48.1341L35.1833 27.0403C35.4902 26.1192 34.9925 25.1237 34.0715 24.8168Z" fill="white"/>
<path d="M12.4219 7.03125H8.90625C7.93547 7.03125 7.14844 7.81828 7.14844 8.78906C7.14844 9.75984 7.93547 10.5469 8.90625 10.5469H12.4219C13.3927 10.5469 14.1797 9.75984 14.1797 8.78906C14.1797 7.81828 13.3927 7.03125 12.4219 7.03125Z" fill="white"/>
<path d="M22.9688 7.03125H19.4531C18.4823 7.03125 17.6953 7.81828 17.6953 8.78906C17.6953 9.75984 18.4823 10.5469 19.4531 10.5469H22.9688C23.9395 10.5469 24.7266 9.75984 24.7266 8.78906C24.7266 7.81828 23.9395 7.03125 22.9688 7.03125Z" fill="white"/>
<path d="M33.5156 7.03125H30C29.0292 7.03125 28.2422 7.81828 28.2422 8.78906C28.2422 9.75984 29.0292 10.5469 30 10.5469H33.5156C34.4864 10.5469 35.2734 9.75984 35.2734 8.78906C35.2734 7.81828 34.4864 7.03125 33.5156 7.03125Z" fill="white"/>
</g>
<defs>
<filter id="filter0_d_83_303" x="0" y="0" width="62" height="62" filterUnits="userSpaceOnUse" color-interpolation-filters="sRGB">
<feFlood flood-opacity="0" result="BackgroundImageFix"/>
<feColorMatrix in="SourceAlpha" type="matrix" values="0 0 0 0 0 0 0 0 0 0 0 0 0 0 0 0 0 0 127 0" result="hardAlpha"/>
<feOffset dx="1" dy="1"/>
<feGaussianBlur stdDeviation="0.5"/>
<feComposite in2="hardAlpha" operator="out"/>
<feColorMatrix type="matrix" values="0 0 0 0 0 0 0 0 0 0 0 0 0 0 0 0 0 0 0.25 0"/>
<feBlend mode="normal" in2="BackgroundImageFix" result="effect1_dropShadow_83_303"/>
<feBlend mode="normal" in="SourceGraphic" in2="effect1_dropShadow_83_303" result="shape"/>
</filter>
</defs>
</svg>
