<svg width="56" height="62" viewBox="0 0 56 62" fill="none" xmlns="http://www.w3.org/2000/svg">
<g filter="url(#filter0_d_83_327)">
<path d="M47.6541 36.9473C47.8343 35.9648 47.9344 34.9823 47.9344 34.0102V10.2025C47.9344 9.16832 47.544 8.2065 46.8334 7.48255C46.1227 6.7586 45.1718 6.39662 44.1709 6.40696C43.9207 6.40696 43.6504 6.40696 43.3702 6.40696C39.4365 6.40696 32.0096 5.69336 26.3744 0.884254C24.9831 -0.294751 22.9813 -0.294751 21.61 0.884254C14.9238 6.65518 4.70436 6.39662 4.56423 6.40696C4.28397 6.40696 4.02373 6.40696 3.77349 6.40696C2.78258 6.41731 1.8317 6.76894 1.11103 7.48255C0.400371 8.2065 0 9.16832 0 10.2025V33.9998C0 46.6793 15.124 55.9666 21.63 59.3691C22.3607 59.7518 23.1614 59.9379 23.9622 59.9379C24.7629 59.9379 25.5637 59.7518 26.2943 59.3691C27.9058 58.5314 30.2981 57.1766 32.9205 55.3977C35.0925 58.2005 38.4256 60 42.159 60C48.6851 60 54 54.5083 54 47.7652C54 43.0699 51.4176 38.9847 47.6541 36.937V36.9473ZM25.3935 57.5386C24.5027 58.004 23.4317 58.004 22.5409 57.5386C17.7264 55.0151 2.00185 45.8726 2.00185 34.0102V10.2025C2.00185 9.7268 2.18202 9.29242 2.50232 8.96148C2.83262 8.63053 3.25301 8.44437 3.71344 8.46505C3.97368 8.46505 4.25394 8.4754 4.52419 8.46505C4.97461 8.4754 15.6044 8.74429 22.8812 2.4666C23.5118 1.91847 24.4426 1.92881 25.0832 2.4666C31.1989 7.67905 39.1563 8.45471 43.3501 8.45471H44.1909C44.6413 8.41334 45.0817 8.62019 45.402 8.95113C45.7223 9.28208 45.9025 9.71645 45.9025 10.1922V33.9998C45.9025 34.6928 45.8224 35.396 45.7123 36.1096C44.5813 35.7373 43.3802 35.5305 42.129 35.5305C40.2673 35.5305 38.5056 35.9959 36.9342 36.7922V25.964C36.9342 24.6815 35.9233 23.637 34.6821 23.637H32.3299V19.014C32.3299 14.236 28.5664 10.337 23.9322 10.337C19.2979 10.337 15.5344 14.2256 15.5344 19.014V23.637H13.1822C11.9411 23.637 10.9301 24.6815 10.9301 25.964V40.505C10.9301 41.7875 11.9411 42.832 13.1822 42.832H31.299C30.6484 44.342 30.278 46.0071 30.278 47.7652C30.278 49.9164 30.8185 51.9228 31.7594 53.6809C29.2271 55.4081 26.9049 56.7112 25.3435 57.5282L25.3935 57.5386ZM32.4701 40.7636H13.2222C13.0821 40.7636 12.972 40.6498 12.972 40.505V25.964C12.972 25.8192 13.0821 25.7054 13.2222 25.7054H34.7121C34.8523 25.7054 34.9624 25.8192 34.9624 25.964V38.0746C34.0015 38.8296 33.1607 39.7397 32.4701 40.7636ZM30.3681 23.637H28.4463V19.014C28.4463 16.4699 26.4445 14.4014 23.9822 14.4014C21.5199 14.4014 19.5181 16.4699 19.5181 19.014V23.637H17.5963V19.014C17.5963 15.3736 20.469 12.4054 23.9922 12.4054C27.5155 12.4054 30.3881 15.3736 30.3881 19.014V23.637H30.3681ZM26.4345 23.637H21.4999V19.014C21.4999 17.6075 22.6109 16.4699 23.9622 16.4699C25.3134 16.4699 26.4245 17.6075 26.4245 19.014V23.637H26.4345ZM42.159 57.9316C36.734 57.9316 32.3199 53.3707 32.3199 47.7652C32.3199 42.1598 36.734 37.5989 42.159 37.5989C47.5841 37.5989 51.9981 42.1598 51.9981 47.7652C51.9981 53.3707 47.5841 57.9316 42.159 57.9316ZM49.8161 44.4868L47.0135 41.591C46.6332 41.198 45.9726 41.198 45.6022 41.591L40.7577 46.6069L38.7359 44.5178C38.3455 44.1145 37.7149 44.1145 37.3246 44.5178L34.522 47.4136C34.1316 47.8169 34.1316 48.4685 34.522 48.8718L40.0571 54.5911C40.2473 54.7876 40.4975 54.891 40.7677 54.891C41.038 54.891 41.2882 54.7772 41.4784 54.5911L49.8462 45.945C50.2365 45.5417 50.2365 44.8901 49.8462 44.4868H49.8161ZM40.7477 52.3882L36.6339 48.1376L38.0252 46.7L40.0471 48.7891C40.4274 49.1821 41.088 49.1821 41.4584 48.7891L46.3029 43.7732L47.6942 45.2107L40.7477 52.3882ZM23.9722 26.9982C21.7802 26.9982 19.9985 28.8391 19.9985 31.104C19.9985 32.19 20.4089 33.2035 21.1496 33.9791V37.7851C21.1496 38.054 21.2497 38.3228 21.4399 38.5193C21.63 38.7158 21.8803 38.8193 22.1505 38.8193H25.8139C26.3644 38.8193 26.8148 38.3539 26.8148 37.7851V33.9791C27.5455 33.2138 27.9659 32.19 27.9659 31.104C27.9659 28.8391 26.1842 26.9982 23.9822 26.9982H23.9722ZM25.1833 32.7071C24.9431 32.9036 24.803 33.2035 24.803 33.5241V36.7612H23.1414V33.5241C23.1414 33.2035 23.0013 32.9036 22.7611 32.7071C22.2706 32.3141 22.0004 31.7349 22.0004 31.1144C22.0004 29.9871 22.8912 29.077 23.9722 29.077C25.0532 29.077 25.954 29.9974 25.954 31.1144C25.954 31.7349 25.6738 32.3141 25.1933 32.7071H25.1833Z" fill="white"/>
</g>
<defs>
<filter id="filter0_d_83_327" x="0" y="0" width="56" height="62" filterUnits="userSpaceOnUse" color-interpolation-filters="sRGB">
<feFlood flood-opacity="0" result="BackgroundImageFix"/>
<feColorMatrix in="SourceAlpha" type="matrix" values="0 0 0 0 0 0 0 0 0 0 0 0 0 0 0 0 0 0 127 0" result="hardAlpha"/>
<feOffset dx="1" dy="1"/>
<feGaussianBlur stdDeviation="0.5"/>
<feComposite in2="hardAlpha" operator="out"/>
<feColorMatrix type="matrix" values="0 0 0 0 0 0 0 0 0 0 0 0 0 0 0 0 0 0 0.25 0"/>
<feBlend mode="normal" in2="BackgroundImageFix" result="effect1_dropShadow_83_327"/>
<feBlend mode="normal" in="SourceGraphic" in2="effect1_dropShadow_83_327" result="shape"/>
</filter>
</defs>
</svg>
