<svg width="36" height="36" viewBox="0 0 36 36" fill="none" xmlns="http://www.w3.org/2000/svg">
<path fill-rule="evenodd" clip-rule="evenodd" d="M28.4579 11.49L30.7929 10.482L28.8229 13.342C28.3329 14.0531 27.7409 14.6882 27.0659 15.227C27.0699 21.503 22.0279 27 14.9759 27C12.6769 27.0043 10.4229 26.3625 8.47093 25.148L4.70093 22.8L9.11393 23.305C10.1558 23.4261 11.2115 23.3144 12.2049 22.978C11.2506 22.3863 10.534 21.4786 10.1799 20.413L9.80393 19.273C9.11072 18.4204 8.74223 17.3496 8.76393 16.251L8.80393 14.619L8.92293 14.684C8.63626 13.4895 8.83094 12.2302 9.46493 11.178L10.1869 9.97598L11.0899 11.05C12.6616 12.9137 14.8519 14.1491 17.2599 14.53C17.3919 12.068 19.4819 9.99998 22.1539 9.99998C23.2946 9.99699 24.4014 10.3872 25.2879 11.105C25.8788 10.9487 26.4463 10.715 26.9759 10.41L29.2399 9.10498L28.4569 11.489L28.4579 11.49Z" stroke="#CCCCCC" stroke-width="2" stroke-linecap="round" stroke-linejoin="round"/>
</svg>
