<svg width="28" height="28" viewBox="0 0 28 28" fill="none" xmlns="http://www.w3.org/2000/svg">
<g clip-path="url(#clip0_66_277)">
<path d="M24.2082 12.833C24.2082 12.3499 23.8162 11.958 23.3332 11.958C22.8501 11.958 22.4582 12.3499 22.4582 12.833C22.4582 17.4974 18.6642 21.2913 13.9998 21.2913C9.33545 21.2913 5.5415 17.4974 5.5415 12.833C5.5415 12.3499 5.14958 11.958 4.6665 11.958C4.18343 11.958 3.7915 12.3499 3.7915 12.833C3.7915 18.1628 7.9113 22.5007 13.1248 22.9529V26.833C13.1248 27.3161 13.5168 27.708 13.9998 27.708C14.4829 27.708 14.8748 27.3161 14.8748 26.833V22.9529C20.0884 22.5007 24.2082 18.1628 24.2082 12.833Z" fill="white"/>
<path d="M13.9997 18.3748C17.0553 18.3748 19.5413 15.8888 19.5413 12.8332V5.83317C19.5413 2.77751 17.0553 0.291504 13.9997 0.291504C10.944 0.291504 8.45801 2.77751 8.45801 5.83317V12.8332C8.45801 15.8888 10.944 18.3748 13.9997 18.3748ZM10.208 5.83317C10.208 3.74251 11.9079 2.0415 13.9997 2.0415C16.0915 2.0415 17.7913 3.74251 17.7913 5.83317V12.8332C17.7913 14.9238 16.0915 16.6248 13.9997 16.6248C11.9079 16.6248 10.208 14.9238 10.208 12.8332V5.83317Z" fill="white"/>
</g>
<defs>
<clipPath id="clip0_66_277">
<rect width="28" height="28" fill="white"/>
</clipPath>
</defs>
</svg>
