<svg width="28" height="28" viewBox="0 0 28 28" fill="none" xmlns="http://www.w3.org/2000/svg">
<path d="M9.53735 9.62514H18.4624C18.6792 10.6874 19.2827 11.6314 20.156 12.2739C21.0292 12.9165 22.11 13.212 23.1887 13.103C24.2674 12.994 25.2672 12.4884 25.9943 11.6842C26.7214 10.8799 27.124 9.83434 27.124 8.75014C27.124 7.66595 26.7214 6.62038 25.9943 5.81614C25.2672 5.01189 24.2674 4.50627 23.1887 4.3973C22.11 4.28833 21.0292 4.58377 20.156 5.22635C19.2827 5.86892 18.6792 6.81286 18.4624 7.87514H9.53735C9.35047 6.93656 8.86098 6.08514 8.14391 5.45137C7.42683 4.81759 6.52173 4.43642 5.56729 4.36627C4.61286 4.29611 3.66175 4.54085 2.85971 5.06296C2.05768 5.58508 1.44896 6.35577 1.12685 7.25695C0.804733 8.15812 0.786993 9.14005 1.07634 10.0523C1.36569 10.9645 1.94617 11.7567 2.72882 12.3074C3.51148 12.8582 4.45313 13.1371 5.40947 13.1015C6.36582 13.0658 7.2841 12.7176 8.0236 12.1101L15.2861 17.4301C15.0154 17.9987 14.8749 18.6204 14.8749 19.2501C14.8749 20.1154 15.1314 20.9613 15.6122 21.6808C16.0929 22.4002 16.7762 22.961 17.5756 23.2921C18.375 23.6233 19.2547 23.7099 20.1034 23.5411C20.952 23.3723 21.7316 22.9556 22.3434 22.3437C22.9553 21.7319 23.372 20.9523 23.5408 20.1037C23.7096 19.255 23.623 18.3753 23.2918 17.5759C22.9607 16.7765 22.3999 16.0932 21.6805 15.6125C20.961 15.1317 20.1151 14.8751 19.2499 14.8751C18.1661 14.8758 17.1225 15.2851 16.3274 16.0214L9.11735 10.7714C9.31372 10.4124 9.45528 10.026 9.53735 9.62514ZM22.7499 6.12514C23.269 6.12514 23.7765 6.2791 24.2082 6.56754C24.6399 6.85598 24.9764 7.26594 25.175 7.7456C25.3737 8.22526 25.4257 8.75306 25.3244 9.26226C25.2231 9.77146 24.9731 10.2392 24.606 10.6063C24.2389 10.9734 23.7712 11.2234 23.262 11.3247C22.7528 11.426 22.225 11.374 21.7453 11.1753C21.2657 10.9766 20.8557 10.6402 20.5672 10.2085C20.2788 9.77684 20.1249 9.26932 20.1249 8.75014C20.1249 8.05395 20.4014 7.38627 20.8937 6.89399C21.386 6.40171 22.0537 6.12514 22.7499 6.12514ZM2.62485 8.75014C2.62485 8.23097 2.77881 7.72345 3.06724 7.29177C3.35568 6.86009 3.76565 6.52364 4.24531 6.32496C4.72496 6.12628 5.25276 6.0743 5.76196 6.17558C6.27116 6.27687 6.73889 6.52688 7.10601 6.89399C7.47312 7.2611 7.72313 7.72883 7.82441 8.23803C7.9257 8.74723 7.87372 9.27503 7.67504 9.75469C7.47636 10.2343 7.1399 10.6443 6.70822 10.9328C6.27655 11.2212 5.76903 11.3751 5.24985 11.3751C4.55366 11.3751 3.88598 11.0986 3.3937 10.6063C2.90141 10.114 2.62485 9.44634 2.62485 8.75014ZM19.2499 16.6251C19.769 16.6251 20.2765 16.7791 20.7082 17.0675C21.1399 17.356 21.4764 17.7659 21.675 18.2456C21.8737 18.7253 21.9257 19.2531 21.8244 19.7623C21.7231 20.2715 21.4731 20.7392 21.106 21.1063C20.7389 21.4734 20.2712 21.7234 19.762 21.8247C19.2528 21.926 18.725 21.874 18.2453 21.6753C17.7657 21.4766 17.3557 21.1402 17.0672 20.7085C16.7788 20.2768 16.6249 19.7693 16.6249 19.2501C16.6249 18.554 16.9014 17.8863 17.3937 17.394C17.886 16.9017 18.5537 16.6251 19.2499 16.6251Z" fill="white"/>
</svg>
