<svg width="28" height="28" viewBox="0 0 28 28" fill="none" xmlns="http://www.w3.org/2000/svg">
<path d="M14.1067 4.87057C14.4715 4.87057 14.7664 4.57537 14.7664 4.2106V0.659673C14.7664 0.294899 14.4715 0 14.1067 0C13.742 0 13.4468 0.294899 13.4468 0.659673V4.2106C13.4468 4.57537 13.7458 4.87057 14.1067 4.87057Z" fill="white"/>
<path d="M14.1067 23.1299C13.742 23.1299 13.4468 23.4248 13.4468 23.7896V27.3405C13.4468 27.7053 13.742 28.0002 14.1067 28.0002C14.4715 28.0002 14.7664 27.7053 14.7664 27.3405V23.7896C14.7664 23.4248 14.4715 23.1299 14.1067 23.1299Z" fill="white"/>
<path d="M4.87057 14.1067C4.87057 13.742 4.57537 13.4468 4.2106 13.4468H0.659673C0.294899 13.4468 0 13.742 0 14.1067C0 14.4715 0.294899 14.7664 0.659673 14.7664H4.2106C4.57537 14.7664 4.87057 14.4715 4.87057 14.1067Z" fill="white"/>
<path d="M27.3405 13.2339H23.7896C23.4248 13.2339 23.1299 13.5288 23.1299 13.8936C23.1299 14.2583 23.4248 14.5532 23.7896 14.5532H27.3405C27.7053 14.5532 28.0002 14.2583 28.0002 13.8936C28.0002 13.5288 27.7053 13.2339 27.3405 13.2339Z" fill="white"/>
<path d="M20.9254 7.7344C21.0924 7.7344 21.2629 7.67223 21.3911 7.54402L23.9138 5.03709C24.1737 4.78098 24.1737 4.36172 23.9176 4.10561C23.6615 3.84565 23.2423 3.84565 22.9861 4.10176L20.4635 6.60899C20.2036 6.8651 20.2036 7.28406 20.4597 7.54017C20.584 7.67223 20.7546 7.7344 20.9254 7.7344Z" fill="white"/>
<path d="M6.60898 7.54407C6.73689 7.67227 6.90773 7.7383 7.07443 7.7383C7.24527 7.7383 7.41226 7.67227 7.54016 7.54407C7.79628 7.28796 7.79628 6.869 7.54016 6.61289L5.03323 4.10566C4.77712 3.84955 4.35786 3.84955 4.10175 4.10566C3.84564 4.36177 3.84564 4.78102 4.10175 5.03714L6.60898 7.54407Z" fill="white"/>
<path d="M21.3877 20.4563C21.1278 20.2001 20.7124 20.2001 20.4563 20.4601C20.2001 20.7201 20.2001 21.1355 20.4601 21.3916L22.9827 23.8985C23.1106 24.0267 23.2776 24.0886 23.4485 24.0886C23.619 24.0886 23.786 24.0229 23.9181 23.8947C24.1742 23.6347 24.1742 23.2193 23.9142 22.9632L21.3877 20.4563Z" fill="white"/>
<path d="M6.60898 20.4558L4.10175 22.9627C3.84564 23.2188 3.84564 23.6381 4.10175 23.8942C4.22996 24.0224 4.4008 24.0881 4.56749 24.0881C4.73833 24.0881 4.90532 24.0224 5.03323 23.8942L7.54016 21.3872C7.79628 21.1311 7.79628 20.7119 7.54016 20.4558C7.28405 20.1996 6.86894 20.1996 6.60898 20.4558Z" fill="white"/>
<path d="M14.0095 6.05811C9.63571 6.05811 6.07324 9.61702 6.07324 13.9946C6.07324 18.3681 9.63186 21.9308 14.0095 21.9308C18.3832 21.9308 21.9457 18.3719 21.9457 13.9946C21.9418 9.61702 18.3832 6.05811 14.0095 6.05811ZM14.0095 20.6073C10.3614 20.6073 7.39259 17.6385 7.39259 13.9905C7.39259 10.3427 10.3614 7.3739 14.0095 7.3739C17.6575 7.3739 20.6263 10.3427 20.6263 13.9905C20.6263 17.6385 17.6575 20.6073 14.0095 20.6073Z" fill="white"/>
</svg>
